<svg width="1024" height="1024" viewBox="0 0 1024 1024" fill="none" xmlns="http://www.w3.org/2000/svg">
<g clip-path="url(#clip0_5_3627)">
<path fill-rule="evenodd" clip-rule="evenodd" d="M545.118 1.23808L563.89 2.90474L552.627 4.57141C524.526 2.31684 496.254 2.31684 468.153 4.57141L456.89 2.90474L473.785 1.23808C497.496 -0.984144 521.406 -0.984144 545.118 1.23808Z" fill="#0E263D"/>
<path fill-rule="evenodd" clip-rule="evenodd" d="M474.184 0.571411L468.57 2.44308H481.669C507.868 0.571411 524.71 0.571411 552.78 4.31475L564.008 2.44308L545.294 0.571411L595.82 4.31475L674.416 23.0314L689.386 28.6464L767.982 64.2081L792.309 79.1815C794.804 81.677 797.299 82.3009 799.794 81.0531C803.537 86.0442 808.527 90.4115 814.765 94.1548L818.508 96.0265L855.934 125.973L893.361 163.406L928.916 204.583C1027.47 346.83 1052.42 501.554 1003.77 668.757C986.303 714.925 964.471 758.597 938.272 799.773L912.074 831.592C910.826 834.087 911.45 836.583 913.945 839.079C928.916 870.273 928.292 901.467 912.074 932.662C902.38 946.133 889.343 956.843 874.247 963.736C859.151 970.629 842.519 973.466 825.993 971.967C821.003 969.471 815.389 968.224 809.151 968.224C805.964 965.402 802.092 963.466 797.923 962.609C792.933 957.617 787.943 954.498 782.953 953.25C781.705 950.755 779.834 949.507 777.339 949.507C772.348 950.755 767.982 953.874 764.239 958.865C759.249 960.113 754.883 962.609 751.14 966.352C744.902 967.6 740.536 970.095 738.041 973.839C714.628 983.917 690.913 993.279 666.93 1001.91C584.592 1024.37 501.006 1029.36 416.173 1016.89C378.747 1008.15 343.191 997.546 309.508 985.069C300.91 979.23 291.434 974.807 281.438 971.967C271.457 964.48 261.477 958.865 251.496 955.122C250.249 952.626 249.001 952.002 247.754 953.25L206.585 925.175C205.337 922.68 203.466 921.432 200.971 921.432C164.792 891.485 132.356 859.043 103.662 824.105C98.9931 815.954 93.3364 808.41 86.82 801.645L69.978 775.442L68.1067 771.698L53.1361 745.495L49.3935 738.008C46.656 730.06 42.8807 722.508 38.1655 715.548L36.2942 711.805C34.7435 703.175 31.5684 694.918 26.9376 687.473L11.967 640.682C6.97681 624.461 4.48171 608.24 4.48171 592.018C4.48171 582.036 3.23416 573.302 0.739063 565.815C-4.05382 519.057 -2.79589 471.876 4.48171 425.44C4.52267 422.824 3.87746 420.242 2.61039 417.953L6.35304 406.723L23.195 343.087C38.1655 301.91 57.5026 262.605 81.206 225.172C98.6717 200.216 118.009 176.508 139.217 154.048C141.624 152.802 143.585 150.841 144.831 148.433L169.158 125.973L214.07 90.4115C216.565 90.4115 218.436 89.1637 219.684 86.6681C222.179 86.6681 224.05 85.4203 225.298 82.9248C227.793 82.9248 229.664 81.677 230.912 79.1815L281.438 51.1064L285.18 49.2348L318.864 34.2614C353.736 21.9888 389.366 11.9857 425.53 4.31475L474.184 0.571411ZM627.633 60.4648C641.116 62.7007 654.301 66.4684 666.93 71.6948C709.347 85.4203 749.269 105.385 786.695 131.588L799.794 140.946C799.225 140.618 798.58 140.445 797.923 140.445C797.266 140.445 796.621 140.618 796.052 140.946C798.459 142.192 800.42 144.154 801.666 146.561L803.537 144.69C811.022 148.433 817.884 154.048 824.122 161.535C848.253 181.042 869.653 203.705 887.747 228.915C896.48 237.649 903.965 248.255 910.203 260.733L917.688 271.963L925.173 285.065L938.272 311.268L882.133 290.68V286.937C879.638 285.689 877.766 286.313 876.519 288.808C862.894 285.325 849.71 280.302 837.221 273.835C813.517 265.1 790.438 255.118 767.982 243.888C749.269 236.402 731.179 227.667 713.714 217.685C682.555 203.821 652.523 187.55 623.89 169.021C612.662 161.535 600.81 155.92 588.335 152.176L582.721 154.048C580.956 155.679 579.673 157.763 579.013 160.074C578.353 162.385 578.341 164.833 578.978 167.15L597.691 185.867C610.207 194.352 622.09 203.735 633.247 213.942L665.059 238.273L678.158 247.632L726.813 281.322C729.308 281.322 731.179 282.569 732.427 285.065C753.103 297.042 773.095 310.164 792.309 324.37C797.299 335.6 794.804 343.71 784.824 348.702C780.011 350.581 774.667 350.581 769.853 348.702L732.427 333.728L683.772 305.653L665.059 294.423C643.851 283.193 624.514 271.339 607.048 258.862C579.987 242.968 554.321 224.81 530.324 204.583L513.482 193.353C486.872 171.08 459.405 149.851 431.144 129.716L416.173 114.743C414.542 114.547 412.992 113.924 411.678 112.939C410.364 111.953 409.333 110.639 408.688 109.128C391.222 96.6503 375.004 83.5487 360.033 69.8231C377.499 62.3364 396.836 56.7214 418.044 52.9781C419.417 53.3114 420.697 53.9513 421.787 54.8498C423.707 52.6838 426.388 51.3428 429.272 51.1064C495.392 39.8764 561.513 42.9959 627.633 60.4648ZM367.519 595.762C365.023 595.762 365.023 597.009 367.519 599.505L369.39 597.633L444.243 640.682L472.313 655.655C524.71 683.106 578.354 708.686 633.247 732.393C640.732 734.889 645.722 732.393 648.217 724.907C646.97 719.916 644.475 716.172 640.732 713.677C619.79 701.352 598.577 689.495 577.107 678.115C559.641 670.628 544.047 661.894 530.324 651.912C526.581 651.912 524.086 650.04 522.838 646.297L520.967 648.168C511.482 643.82 502.662 638.148 494.769 631.323C492.274 622.589 495.392 618.222 504.125 618.222C512.858 619.47 521.591 623.213 530.324 629.452L651.96 685.602C734.375 718.281 818.749 745.786 904.589 767.955L878.39 801.645C876.209 802.358 873.894 802.56 871.622 802.235C869.351 801.911 867.185 801.069 865.291 799.773C820.379 788.543 786.071 801.645 762.368 839.079C742.11 831.721 722.135 823.604 702.486 814.747C676.709 806.201 651.674 795.559 627.633 782.928L597.691 769.827V766.083C595.196 764.836 593.949 765.46 593.949 767.955L567.75 754.853C568.49 754.95 569.241 754.823 569.908 754.49C570.574 754.156 571.126 753.631 571.493 752.982C567.75 750.486 565.255 750.486 564.008 752.982C545.294 745.495 528.452 736.761 513.482 726.778C475.871 707.67 439.039 687.065 403.074 665.013V661.27C400.579 660.022 399.331 660.646 399.331 663.142L335.706 623.837L337.577 621.965L331.963 618.222V620.093L328.221 618.222C313.25 605.744 313.25 593.89 328.221 582.66C341.944 581.412 355.043 585.779 367.519 595.762ZM131.732 719.292L154.188 738.008C151.693 738.008 151.693 739.256 154.188 741.752L156.059 739.88L202.842 775.442C205.337 775.442 207.208 776.69 208.456 779.185C210.951 779.185 212.822 780.433 214.07 782.928L247.754 805.388C250.249 805.388 252.12 806.636 253.368 809.132C268.338 815.371 281.438 823.481 292.666 833.464C292.666 835.959 293.289 835.959 294.537 833.464H298.28L320.735 848.437C357.864 863.379 391.597 885.66 419.916 913.945C420.799 914.213 421.603 914.695 422.256 915.348C422.909 916.001 423.39 916.805 423.658 917.689L431.144 925.175H429.272L433.015 930.79L434.886 928.919C435.77 929.187 436.573 929.668 437.226 930.321C437.879 930.974 438.361 931.778 438.629 932.662C442.372 935.157 445.49 938.901 447.986 943.892L455.471 951.379C457.966 951.379 459.213 953.25 459.213 956.994L466.699 962.609C469.194 967.6 472.937 971.967 477.927 975.71L470.441 977.582H468.57C443.257 974.614 418.224 969.607 393.717 962.609C376.251 958.865 360.033 953.874 345.063 947.635C333.098 944.502 321.722 939.445 311.379 932.662C295.405 926.56 280.304 918.379 266.467 908.33C248.799 899.354 232.432 888.021 217.813 874.64C211.575 870.897 206.585 866.53 202.842 861.539L204.713 859.667L199.099 855.924V857.795C196.288 854.937 193.148 852.424 189.743 850.309L169.158 827.849L156.059 814.747C147.326 806.012 140.465 797.278 135.474 788.543C112.244 759.608 93.3343 727.455 79.3347 693.088L66.2354 663.142C65.9069 662.573 65.734 661.927 65.734 661.27C65.734 660.613 65.9069 659.967 66.2354 659.398L131.732 719.292Z" fill="#08324F"/>
<path fill-rule="evenodd" clip-rule="evenodd" d="M946.89 324.571C958.493 348.896 967.219 374.496 972.89 400.85L971.033 404.571C964.842 377.285 956.795 350.618 946.89 324.571Z" fill="#060F20"/>
<path fill-rule="evenodd" clip-rule="evenodd" d="M431.114 129.571C459.337 149.674 486.766 170.868 513.339 193.106L530.158 204.318C554.121 224.512 579.752 242.641 606.776 258.509C624.218 270.967 643.528 282.802 664.707 294.014L683.395 305.226L731.982 333.256L769.357 348.205H784.307C794.274 343.222 796.765 335.125 791.782 323.913C772.595 309.729 752.63 296.628 731.982 284.671C730.736 282.179 728.867 280.933 726.376 280.933L677.788 247.297L664.707 237.954L632.939 213.661C621.797 203.471 609.93 194.103 597.432 185.631C590.257 180.426 583.95 174.12 578.745 166.945C577.499 161.962 578.745 157.601 582.482 153.864L588.089 151.995C600.51 156.271 612.418 161.911 623.595 168.813C652.188 187.312 682.179 203.557 713.295 217.399C730.736 227.365 748.801 236.085 767.488 243.56C789.913 254.772 812.961 264.738 836.632 273.459C849.103 279.915 862.269 284.93 875.876 288.408L881.482 290.277L937.544 310.832C937.544 313.323 938.167 313.323 939.413 310.832L946.888 323.913C956.855 350.074 964.952 376.858 971.182 404.265C994.852 520.122 979.279 630.374 924.463 735.019L903.907 766.786C818.185 744.652 733.928 717.192 651.626 684.565L530.158 628.505C522.43 622.779 513.471 618.939 503.995 617.293C495.274 617.293 492.16 621.653 494.651 630.374L520.814 647.192L522.683 645.323C523.928 649.06 526.42 650.929 530.158 650.929C543.862 660.895 559.435 669.615 576.876 677.09C598.316 688.452 619.501 700.289 640.414 712.595C644.151 715.086 646.643 718.824 647.889 723.807C645.397 731.281 640.414 733.773 632.939 731.281C578.122 707.612 524.551 682.073 472.226 654.666L444.195 639.717L369.445 596.738L367.577 594.869C355.118 584.903 342.037 580.542 328.333 581.788C313.383 593 313.383 604.835 328.333 617.293L332.07 619.162C332.338 620.044 332.819 620.846 333.471 621.498C334.123 622.15 334.926 622.631 335.808 622.899L399.345 662.141L403.083 664.009C438.998 686.025 475.78 706.597 513.339 725.675C528.289 735.642 545.107 744.362 563.795 751.837L567.532 753.705L593.695 766.786L597.432 768.655L627.332 781.735C651.341 794.346 676.341 804.97 702.082 813.503C721.704 822.346 741.652 830.449 761.882 837.795C751.277 855.815 747.936 877.197 752.538 897.593C752.247 900.822 752.896 904.067 754.407 906.936C736.965 920.639 718.278 931.851 698.345 940.572C660.467 956.106 620.981 967.387 580.614 974.208C543.239 977.945 506.487 978.568 470.358 976.076L477.833 974.208C473.172 970.732 469.343 966.264 466.62 961.127C501.794 950.541 533.02 929.725 556.32 901.33C567.532 887.626 567.532 874.546 556.32 862.088L537.632 852.745C506.487 849.007 477.21 842.156 449.801 832.189L324.595 777.998C308.4 774.261 297.81 780.49 292.827 796.685C290.335 809.142 292.204 820.977 298.433 832.189H294.696C293.45 829.698 292.827 829.698 292.827 832.189C281.614 822.223 268.533 814.126 253.583 807.897C252.337 805.405 250.469 804.159 247.977 804.159L214.339 781.735C213.094 779.244 211.225 777.998 208.733 777.998C207.487 775.506 205.619 774.261 203.127 774.261L156.408 738.756L154.54 736.887L132.115 718.201C110.008 698.604 88.2033 678.669 66.7085 658.403C66.3805 658.972 66.2078 659.616 66.2078 660.272C66.2078 660.928 66.3805 661.573 66.7085 662.141C59.2335 639.717 53.6273 616.67 49.8898 593L70.446 585.526C89.4639 582.622 108.915 585.216 126.508 593C141.458 604.212 157.654 614.178 175.096 622.899C195.029 622.899 206.242 612.933 208.733 593L212.471 559.364C209.988 525.511 205.621 491.823 199.389 458.456V415.477C210.602 375.612 235.519 362.532 274.139 376.235C289.909 384.709 303.378 396.895 313.383 411.74C327.465 433.301 343.748 453.341 361.97 471.537C374.717 481.957 390.417 488.105 406.85 489.111C423.283 490.117 439.616 485.93 453.539 477.143C466.303 467.956 479.393 459.23 492.783 450.982C510.224 447.244 527.666 449.736 545.107 458.456C575.942 480.421 607.742 500.997 640.414 520.122C659.101 530.089 679.034 536.94 700.213 540.678C781.192 544.415 798.634 513.271 752.538 447.244C733.107 422.762 708.959 402.428 681.526 387.447C621.726 371.252 568.155 344.468 520.814 307.095C493.522 286.11 471.292 259.264 455.766 228.538C440.241 197.811 431.816 163.99 431.114 129.571Z" fill="#2597D3"/>
<path fill-rule="evenodd" clip-rule="evenodd" d="M359.488 70.5714C374.434 84.2693 390.625 97.3445 408.062 109.797C408.706 111.305 409.736 112.616 411.047 113.6C412.359 114.584 413.907 115.205 415.535 115.401L430.481 130.344C432.972 202.569 462.863 261.719 520.155 307.794C567.484 345.152 621.04 371.925 680.823 388.113C708.223 403.056 731.888 422.981 751.815 447.886C797.898 515.13 780.461 546.261 699.505 541.28C678.332 537.545 658.404 530.696 639.722 520.734C607.059 501.616 575.268 481.049 544.442 459.093C527.006 450.376 509.569 447.886 492.132 451.622C478.746 459.867 465.66 468.589 452.899 477.772C438.981 486.555 422.652 490.74 406.224 489.735C389.795 488.729 374.099 482.584 361.356 472.168C342.674 453.489 326.483 433.565 312.782 412.396C301.573 397.453 288.495 385.623 273.55 376.906C234.94 363.208 210.03 376.283 198.821 416.132V459.093C205.048 492.715 209.407 526.337 211.898 559.959L208.162 593.581C205.671 614.751 194.461 624.713 174.534 623.468C157.097 614.751 140.906 604.789 125.96 593.581C108.372 585.8 88.9258 583.208 69.9131 586.11L49.3627 593.581L45.6262 580.506L41.8898 530.073V468.433L47.4944 429.207C51.2309 404.302 56.8356 380.642 64.3085 358.227C95.608 272.381 149.894 196.783 221.239 139.683C246.51 122.108 272.702 105.896 299.705 91.1182L337.069 76.1751C343.297 72.4393 350.77 70.5714 359.488 70.5714Z" fill="#00985B"/>
<path fill-rule="evenodd" clip-rule="evenodd" d="M337.89 75.4603L299.89 90.5714C311.29 83.0159 323.323 77.3492 335.99 73.5714L337.89 75.4603Z" fill="#081748"/>
<path fill-rule="evenodd" clip-rule="evenodd" d="M63.8898 358.443C56.3342 380.905 50.6675 404.614 46.8898 429.571C48.149 404.614 53.1861 380.281 62.0009 356.571L63.8898 358.443Z" fill="#081346"/>
<path fill-rule="evenodd" clip-rule="evenodd" d="M41.8898 468.571V496.636C39.2231 505.367 37.8898 515.346 37.8898 526.571V507.862C37.8898 491.647 39.2231 478.55 41.8898 468.571Z" fill="#061147"/>
<path fill-rule="evenodd" clip-rule="evenodd" d="M42.3475 529.571L45.8898 580.959L44.1186 588.571C40.5245 569.142 39.9261 549.21 42.3475 529.571Z" fill="#081445"/>
<path opacity="0.1" fill-rule="evenodd" clip-rule="evenodd" d="M0.334215 566.571C2.70459 574 3.88977 582.667 3.88977 592.571C0.334215 583.905 -0.85097 575.238 0.334215 566.571Z" fill="#2B6987"/>
<path fill-rule="evenodd" clip-rule="evenodd" d="M466.411 962.571L458.907 956.94C458.907 953.187 457.657 951.31 455.156 951.31L447.653 943.802C445.152 938.796 442.025 935.042 438.274 932.54C438.005 931.654 437.522 930.847 436.868 930.193C436.213 929.538 435.408 929.055 434.522 928.786C434.253 927.9 433.771 927.093 433.116 926.439C432.462 925.784 431.656 925.301 430.77 925.032L423.267 917.524C422.999 916.638 422.516 915.832 421.861 915.177C421.207 914.522 420.401 914.039 419.516 913.77C391.129 885.404 357.316 863.06 320.099 848.076L297.589 833.06C291.336 821.798 289.461 809.91 291.962 797.397C296.964 781.13 307.593 774.873 323.85 778.627L449.528 833.06C477.04 843.07 506.428 849.953 537.691 853.706L556.449 863.091C567.703 875.605 567.703 888.743 556.449 902.508C533.06 931.029 501.717 951.938 466.411 962.571Z" fill="#01975A"/>
<path fill-rule="evenodd" clip-rule="evenodd" d="M752.136 898.571C755.808 903.557 755.808 908.542 752.136 913.528C736.034 925.812 718.04 935.289 698.89 941.571C718.606 932.834 737.122 921.522 753.972 907.919C752.488 905.049 751.85 901.802 752.136 898.571Z" fill="#061427"/>
<path fill-rule="evenodd" clip-rule="evenodd" d="M579.89 975.571C572.149 978.487 563.861 979.738 555.585 979.241C520.744 982.874 485.577 982.257 450.89 977.406H469.585C505.73 979.853 542.498 979.241 579.89 975.571Z" fill="#05142B"/>
</g>
<defs>
<clipPath id="clip0_5_3627">
<rect width="1024" height="1024" fill="white"/>
</clipPath>
</defs>
</svg>
